<svg width="30" height="30" viewBox="0 0 30 30" fill="none" xmlns="http://www.w3.org/2000/svg">
<rect width="30" height="30" rx="2" fill="#00A96E"/>
<g clip-path="url(#clip0_577_144)">
<path d="M22.3333 13.875H15.6667V7.625C15.6667 7.45924 15.5964 7.30027 15.4714 7.18306C15.3464 7.06585 15.1768 7 15 7C14.8232 7 14.6536 7.06585 14.5286 7.18306C14.4036 7.30027 14.3333 7.45924 14.3333 7.625V13.875H7.66667C7.48986 13.875 7.32029 13.9408 7.19526 14.0581C7.07024 14.1753 7 14.3342 7 14.5C7 14.6658 7.07024 14.8247 7.19526 14.9419C7.32029 15.0592 7.48986 15.125 7.66667 15.125H14.3333V21.375C14.3333 21.5408 14.4036 21.6997 14.5286 21.8169C14.6536 21.9342 14.8232 22 15 22C15.1768 22 15.3464 21.9342 15.4714 21.8169C15.5964 21.6997 15.6667 21.5408 15.6667 21.375V15.125H22.3333C22.5101 15.125 22.6797 15.0592 22.8047 14.9419C22.9298 14.8247 23 14.6658 23 14.5C23 14.3342 22.9298 14.1753 22.8047 14.0581C22.6797 13.9408 22.5101 13.875 22.3333 13.875Z" fill="white"/>
</g>
<defs>
<clipPath id="clip0_577_144">
<rect width="16" height="15" fill="white" transform="translate(7 7)"/>
</clipPath>
</defs>
</svg>
