<svg width="60" height="60" viewBox="0 0 60 60" fill="none" xmlns="http://www.w3.org/2000/svg">
<circle opacity="0.1" cx="30" cy="30" r="30" fill="#35B872"/>
<path d="M23.2749 22.5037C23.5491 22.5037 23.7769 22.5037 24.0035 22.5037C29.0309 22.5037 34.0596 22.5037 39.087 22.5037C41.1325 22.5037 42.2704 23.7233 41.9449 25.5403C41.5018 28.0154 41.0686 30.4917 40.638 32.9691C40.3238 34.7771 38.7727 35.8785 36.7598 35.7154C36.5319 35.6974 36.3016 35.7019 36.0725 35.7019C32.6725 35.7019 29.2712 35.7052 25.8712 35.6996C24.1975 35.6962 23.2361 34.947 22.9932 33.4562C22.3298 29.3824 21.6738 25.3074 21.0166 21.2335C20.8639 20.2885 20.2793 19.8238 19.2089 19.8013C18.429 19.7822 17.9771 19.4323 18.0009 18.8653C18.0259 18.3174 18.4641 18.0057 19.2189 18.0001C21.2407 17.9866 22.7491 19.1803 23.0108 20.9917C23.0809 21.4743 23.1785 21.9525 23.2749 22.5037ZM30.453 29.4319C30.2389 29.2496 30.0737 29.1112 29.9122 28.9706C29.7482 28.8266 29.5917 28.6747 29.4227 28.5363C28.9595 28.1538 28.3649 28.1347 27.9706 28.4823C27.5537 28.8502 27.5525 29.3554 28.0056 29.7818C28.5665 30.3106 29.1398 30.8303 29.7319 31.331C30.2051 31.7315 30.7034 31.7293 31.1715 31.3164C32.347 30.2802 33.5062 29.2271 34.6654 28.1763C35.0498 27.8275 35.1274 27.4282 34.8207 27.0063C34.4589 26.5101 33.7403 26.4752 33.2033 26.9489C32.2832 27.7589 31.3856 28.5881 30.453 29.4319Z" fill="#35B872"/>
<path d="M36.4804 42C35.4462 42.0054 34.6283 41.2229 34.6159 40.2178C34.6035 39.2236 35.4283 38.4055 36.4488 38.4C37.4816 38.3946 38.2996 39.1799 38.3078 40.185C38.3161 41.1915 37.5077 41.9945 36.4791 42H36.4804Z" fill="#35B872"/>
<path d="M26.6215 38.4C27.6584 38.4055 28.4703 39.2058 28.462 40.2123C28.4537 41.2215 27.6361 42.0041 26.5951 42C25.5444 41.9959 24.7644 41.2215 24.7699 40.1877C24.7755 39.1607 25.568 38.3946 26.6215 38.4Z" fill="#35B872"/>
</svg>
