<svg width="34" height="34" viewBox="0 0 34 34" fill="none" xmlns="http://www.w3.org/2000/svg">
<rect width="34" height="34" rx="2" fill="#FF3A6E"/>
<g clip-path="url(#clip0_69_1995)">
<path d="M24.5 11H20.75V9.5C20.75 9.10218 20.592 8.72064 20.3107 8.43934C20.0294 8.15804 19.6478 8 19.25 8H14.75C14.3522 8 13.9706 8.15804 13.6893 8.43934C13.408 8.72064 13.25 9.10218 13.25 9.5V11H9.5V12.5H11V23.75C11 24.3467 11.2371 24.919 11.659 25.341C12.081 25.7629 12.6533 26 13.25 26H20.75C21.3467 26 21.919 25.7629 22.341 25.341C22.7629 24.919 23 24.3467 23 23.75V12.5H24.5V11ZM14.75 9.5H19.25V11H14.75V9.5ZM21.5 23.75C21.5 23.9489 21.421 24.1397 21.2803 24.2803C21.1397 24.421 20.9489 24.5 20.75 24.5H13.25C13.0511 24.5 12.8603 24.421 12.7197 24.2803C12.579 24.1397 12.5 23.9489 12.5 23.75V12.5H21.5V23.75Z" fill="white"/>
<path d="M16.25 15.5H14.75V21.5H16.25V15.5Z" fill="white"/>
<path d="M19.25 15.5H17.75V21.5H19.25V15.5Z" fill="white"/>
</g>
<defs>
<clipPath id="clip0_69_1995">
<rect width="18" height="18" fill="white" transform="translate(8 8)"/>
</clipPath>
</defs>
</svg>
