<svg width="30" height="30" viewBox="0 0 30 30" fill="none" xmlns="http://www.w3.org/2000/svg">
<rect width="30" height="30" rx="2" fill="#FF5861"/>
<g clip-path="url(#clip0_576_125)">
<path d="M18.333 9.66667V8.33333C18.333 7.97971 18.1925 7.64057 17.9425 7.39052C17.6924 7.14048 17.3533 7 16.9997 7H12.9997C12.6461 7 12.3069 7.14048 12.0569 7.39052C11.8068 7.64057 11.6663 7.97971 11.6663 8.33333V9.66667H8.33301V11H9.66634V21C9.66634 21.5304 9.87705 22.0391 10.2521 22.4142C10.6272 22.7893 11.1359 23 11.6663 23H18.333C18.8634 23 19.3721 22.7893 19.7472 22.4142C20.1223 22.0391 20.333 21.5304 20.333 21V11H21.6663V9.66667H18.333ZM14.333 18.3333H12.9997V14.3333H14.333V18.3333ZM16.9997 18.3333H15.6663V14.3333H16.9997V18.3333ZM16.9997 9.66667H12.9997V8.33333H16.9997V9.66667Z" fill="white"/>
</g>
<defs>
<clipPath id="clip0_576_125">
<rect width="16" height="16" fill="white" transform="translate(7 7)"/>
</clipPath>
</defs>
</svg>
