<svg width="34" height="34" viewBox="0 0 34 34" fill="none" xmlns="http://www.w3.org/2000/svg">
<rect width="34" height="34" rx="2" fill="#4D3292"/>
<g clip-path="url(#clip0_69_1997)">
<path d="M25.1398 8.861C24.6299 8.35189 23.9388 8.06595 23.2183 8.06595C22.4977 8.06595 21.8066 8.35189 21.2968 8.861L9.09876 21.059C8.74945 21.4063 8.47248 21.8195 8.28388 22.2746C8.09529 22.7297 7.9988 23.2176 8.00001 23.7102V25.25C8.00001 25.4489 8.07903 25.6397 8.21968 25.7803C8.36033 25.921 8.5511 26 8.75001 26H10.2898C10.7823 26.0014 11.2703 25.9051 11.7254 25.7166C12.1805 25.5281 12.5937 25.2512 12.941 24.902L25.1398 12.7032C25.6486 12.1934 25.9344 11.5025 25.9344 10.7821C25.9344 10.0618 25.6486 9.37085 25.1398 8.861ZM11.8805 23.8415C11.4575 24.2617 10.886 24.4983 10.2898 24.5H9.50001V23.7102C9.49925 23.4147 9.55713 23.1219 9.67029 22.8488C9.78345 22.5758 9.94965 22.3279 10.1593 22.1195L19.4165 12.8622L21.1415 14.5872L11.8805 23.8415ZM24.0785 11.6427L22.199 13.523L20.474 11.8017L22.3543 9.9215C22.4675 9.80848 22.6019 9.71887 22.7498 9.6578C22.8977 9.59673 23.0562 9.56539 23.2162 9.56556C23.3762 9.56574 23.5346 9.59742 23.6824 9.65882C23.8301 9.72021 23.9644 9.81011 24.0774 9.92337C24.1904 10.0366 24.28 10.1711 24.3411 10.3189C24.4022 10.4668 24.4335 10.6253 24.4333 10.7853C24.4331 10.9453 24.4015 11.1037 24.3401 11.2515C24.2787 11.3993 24.1888 11.5335 24.0755 11.6465L24.0785 11.6427Z" fill="white"/>
</g>
<defs>
<clipPath id="clip0_69_1997">
<rect width="18" height="18" fill="white" transform="translate(8 8)"/>
</clipPath>
</defs>
</svg>
