<svg width="40" height="40" viewBox="0 0 40 40" fill="none" xmlns="http://www.w3.org/2000/svg">
<rect width="40" height="40" rx="2" fill="#4D3292"/>
<g clip-path="url(#clip0_40_1013)">
<path d="M29.819 19.4787H21.202V10.8617C21.202 10.6332 21.1113 10.414 20.9497 10.2524C20.7881 10.0908 20.5689 10 20.3403 10C20.1118 10 19.8926 10.0908 19.731 10.2524C19.5694 10.414 19.4787 10.6332 19.4787 10.8617V19.4787H10.8617C10.6332 19.4787 10.414 19.5694 10.2524 19.731C10.0908 19.8926 10 20.1118 10 20.3403C10 20.5689 10.0908 20.7881 10.2524 20.9497C10.414 21.1113 10.6332 21.202 10.8617 21.202H19.4787V29.819C19.4787 30.0475 19.5694 30.2667 19.731 30.4283C19.8926 30.5899 20.1118 30.6807 20.3403 30.6807C20.5689 30.6807 20.7881 30.5899 20.9497 30.4283C21.1113 30.2667 21.202 30.0475 21.202 29.819V21.202H29.819C30.0475 21.202 30.2667 21.1113 30.4283 20.9497C30.5899 20.7881 30.6807 20.5689 30.6807 20.3403C30.6807 20.1118 30.5899 19.8926 30.4283 19.731C30.2667 19.5694 30.0475 19.4787 29.819 19.4787Z" fill="white"/>
</g>
<defs>
<clipPath id="clip0_40_1013">
<rect width="20.6807" height="20.6807" fill="white" transform="translate(10.7837 10.3403)"/>
</clipPath>
</defs>
</svg>
