<svg width="24" height="18" viewBox="0 0 24 18" fill="none" xmlns="http://www.w3.org/2000/svg">
<path d="M23.821 8.181C22.943 6.261 19.5 0 12 0C4.49999 0 1.05699 6.261 0.178993 8.181C0.0611316 8.4383 0.00012207 8.71799 0.00012207 9.001C0.00012207 9.28401 0.0611316 9.5637 0.178993 9.821C1.05699 11.739 4.49999 18 12 18C19.5 18 22.943 11.739 23.821 9.819C23.9386 9.56199 23.9995 9.28265 23.9995 9C23.9995 8.71735 23.9386 8.43801 23.821 8.181ZM12 15C10.8133 15 9.65327 14.6481 8.66657 13.9888C7.67988 13.3295 6.91084 12.3925 6.45672 11.2961C6.00259 10.1997 5.88377 8.99334 6.11528 7.82946C6.34679 6.66557 6.91824 5.59647 7.75735 4.75736C8.59647 3.91824 9.66557 3.3468 10.8295 3.11529C11.9933 2.88378 13.1997 3.0026 14.2961 3.45672C15.3925 3.91085 16.3295 4.67988 16.9888 5.66658C17.6481 6.65327 18 7.81331 18 9C17.9984 10.5908 17.3658 12.116 16.2409 13.2409C15.116 14.3658 13.5908 14.9984 12 15Z" fill="#4D3292"/>
</svg>
