<svg width="30" height="30" viewBox="0 0 30 30" fill="none" xmlns="http://www.w3.org/2000/svg">
<rect width="30" height="30" rx="2" fill="#FFBE00"/>
<g clip-path="url(#clip0_576_130)">
<path d="M16.736 10.7913L7 20.5267V23H9.47333L19.2087 13.264L16.736 10.7913Z" fill="white"/>
<path d="M22.4883 7.512C22.1603 7.18412 21.7154 6.99993 21.2516 6.99993C20.7878 6.99993 20.343 7.18412 20.015 7.512L17.6816 9.84867L20.1543 12.3213L22.4876 9.988C22.6504 9.82557 22.7796 9.63263 22.8678 9.42022C22.9559 9.20781 23.0013 8.98011 23.0014 8.75014C23.0014 8.52017 22.9562 8.29244 22.8681 8.07999C22.7801 7.86753 22.651 7.67452 22.4883 7.512Z" fill="white"/>
</g>
<defs>
<clipPath id="clip0_576_130">
<rect width="16" height="16" fill="white" transform="translate(7 7)"/>
</clipPath>
</defs>
</svg>
